<?xml version="1.0" encoding="UTF-8"?> <svg xmlns="http://www.w3.org/2000/svg" viewBox="0 0 47.77 104.69"> <defs> <style>.cls-1{fill:#b64141;}.cls-2{fill:#fff;}</style> </defs> <g id="Слой_2" data-name="Слой 2"> <g id="Слой_1-2" data-name="Слой 1"> <path class="cls-1" d="M30.14,33V7.74H17.34V33A16.36,16.36,0,0,0,7.41,48V99.23a5.46,5.46,0,0,0,5.45,5.46H34.61a5.47,5.47,0,0,0,5.46-5.46V48A16.36,16.36,0,0,0,30.14,33Zm-7.8-20.24h2.8v19c-.47,0-.93-.07-1.4-.07s-.94,0-1.4.07ZM35.07,99.23a.46.46,0,0,1-.46.46H12.86a.45.45,0,0,1-.45-.46V80.6H35.07Zm0-23.63H12.41V59.1H35.07Zm0-21.5H12.41V48a11.33,11.33,0,0,1,22.66,0Z"></path> <rect class="cls-1" x="17.91" width="11.65" height="5"></rect> <path class="cls-1" d="M47.77,78.21l-7.68-7.69a17.43,17.43,0,1,0-32.75.35L0,78.21l12,12,8.34-8.34a17.22,17.22,0,0,0,7.09-.08l8.42,8.42Z"></path> <polygon class="cls-2" points="28.49 59.07 38.7 60.76 31.14 67.83 32.69 78.05 23.63 73.06 14.38 77.68 16.34 67.53 9.08 60.16 19.34 58.88 24.11 49.7 28.49 59.07"></polygon> </g> </g> </svg> 