<?xml version="1.0" encoding="UTF-8"?> <svg xmlns="http://www.w3.org/2000/svg" viewBox="0 0 86.83 106.8"> <defs> <style>.cls-1{fill:#b64141;}</style> </defs> <g id="Слой_2" data-name="Слой 2"> <g id="Слой_1-2" data-name="Слой 1"> <path class="cls-1" d="M32.74,73.43a13,13,0,0,1-5.56,6.45,7.91,7.91,0,0,1-5.64.87l-9-2a8.3,8.3,0,0,1-4.9-3.2,13.82,13.82,0,0,1-1.79-3.28,41.65,41.65,0,0,0,13.35.49C22.52,72.45,25.66,72.13,32.74,73.43Z"></path> <path class="cls-1" d="M86.83,59.89v6h-5V38.56c-7.62-4.53-8.27-12.48-7.15-18C62.86,20,55.36,16,50.7,11.79a35.24,35.24,0,0,0-3.83,12.13l0,.23-1.39,7.38a2.64,2.64,0,0,1-.28.77L36.44,47.71l8.58.67a2.51,2.51,0,0,1,2.3,2.28,20.83,20.83,0,0,1-1,8.22l2.3,1.1a2.49,2.49,0,0,1,1.07,3.54l-1.7,2.83a7.38,7.38,0,0,1,1.91,6.71l-.74,3.33a1.39,1.39,0,0,0,.61,1.48,9.5,9.5,0,0,0,3.79.87h.25c.11,0,12.77,0,19.07-4L75.49,79a27.43,27.43,0,0,1-8.15,3.18l.18,6.73a.33.33,0,0,1,0,.14,14.9,14.9,0,0,1-6.38,11.77l-2,1.41-2.85-4.11,2-1.41A9.88,9.88,0,0,0,62.52,89l-.16-5.87a66.12,66.12,0,0,1-8.52.62,4.87,4.87,0,0,1-.55,0A13.91,13.91,0,0,1,47,82.06a6.44,6.44,0,0,1-2.77-6.74L45,72a2.35,2.35,0,0,0-1.35-2.67,2.45,2.45,0,0,1-1.37-1.53,2.51,2.51,0,0,1,.23-2l1.47-2.44-2.15-1a2.51,2.51,0,0,1-.95-3.72,10.8,10.8,0,0,0,1.5-5.37l-10.21-.8a2.5,2.5,0,0,1-2-3.72L40.61,30.2l1.29-6.87A39.24,39.24,0,0,1,47.16,7.94,22.3,22.3,0,0,1,43.6,1.45L48.38,0c.2.64,5.18,15.57,28.87,15.57H78a2.47,2.47,0,0,1,2.1,1.08A2.5,2.5,0,0,1,80.31,19c-.17.46-4.29,11.26,5.11,15.83a2.5,2.5,0,0,1,1.41,2.25Z"></path> <rect class="cls-1" x="53.79" y="30.39" width="7.67" height="5"></rect> <path class="cls-1" d="M38.67,67.65a18.08,18.08,0,0,1-9,16.55,12.85,12.85,0,0,1-6.44,1.73,13.14,13.14,0,0,1-2.78-.3l-9-2a13.2,13.2,0,0,1-7.86-5.12,18.6,18.6,0,0,1-1.92-18.9L10.1,41.79l4.53,2.12L6.26,61.77A13.45,13.45,0,0,0,5,67.06c7.27,1.43,10.42,1.11,13.72.76,3.51-.36,7.12-.74,15,.7,0-.23,0-.45,0-.67l-.24-7,5-.18ZM27.18,79.88a13,13,0,0,0,5.56-6.45c-7.08-1.3-10.22-1-13.5-.63a41.65,41.65,0,0,1-13.35-.49,13.82,13.82,0,0,0,1.79,3.28,8.3,8.3,0,0,0,4.9,3.2l9,2A7.91,7.91,0,0,0,27.18,79.88Z"></path> <polygon class="cls-1" points="22.05 101.91 20.99 106.8 1.45 102.54 2.51 97.66 10.12 99.32 12.69 87.45 17.57 88.51 15.01 100.38 22.05 101.91"></polygon> </g> </g> </svg> 