<?xml version="1.0" encoding="UTF-8"?> <svg xmlns="http://www.w3.org/2000/svg" viewBox="0 0 64.67 119.8"> <defs> <style>.cls-1{fill:#b64141;}</style> </defs> <g id="Слой_2" data-name="Слой 2"> <g id="Слой_1-2" data-name="Слой 1"> <path class="cls-1" d="M54.74,33V7.74H41.94V33A16.36,16.36,0,0,0,32,48V99.23a5.46,5.46,0,0,0,5.45,5.46H59.21a5.47,5.47,0,0,0,5.46-5.46V48A16.36,16.36,0,0,0,54.74,33Zm-7.8-20.24h2.8v19c-.47,0-.93-.07-1.4-.07s-.94,0-1.4.07ZM59.67,99.23a.46.46,0,0,1-.46.46H37.46a.45.45,0,0,1-.45-.46V80.6H59.67Zm0-23.63H37V59.1H59.67Zm0-21.5H37V48a11.33,11.33,0,0,1,22.66,0Z"></path> <rect class="cls-1" x="42.51" width="11.65" height="5"></rect> <path class="cls-1" d="M48.5,70h5a7.84,7.84,0,0,0-7.83-7.83v5A2.83,2.83,0,0,1,48.5,70Z"></path> <rect class="cls-1" x="12.07" y="11.04" width="12.19" height="5" transform="translate(-0.03 0.04) rotate(-0.12)"></rect> <path class="cls-1" d="M37,109.55c0-5.06-.17-21.34-.58-26.26l-.05-.63a66.74,66.74,0,0,0-6.69-21.23A34.06,34.06,0,0,1,25.9,46l-.14-24.24-15,0,.06,23.61a34,34,0,0,1-4,16.05A63.19,63.19,0,0,0,.35,82.74l0,.34.08.55c-.42,6-.38,25.8-.38,26V113c0,4,2.41,6.82,5.84,6.82h0l25.07-.06a5.73,5.73,0,0,0,4.47-2.11,7.34,7.34,0,0,0,1.6-4.74ZM5.37,83.24h26v0l0,.41c.25,3.08.42,11.41.5,18.2L5,102c0-6.77.13-15.11.37-18.2l0-.27ZM11.3,63.81a38.92,38.92,0,0,0,4.56-18.42l0-18.62h5L20.9,46a39.12,39.12,0,0,0,4.35,17.72,60.82,60.82,0,0,1,5.23,14.5H6.21A54.55,54.55,0,0,1,11.3,63.81Zm20.27,50.62a.78.78,0,0,1-.64.31l-25.07.06h0C5,114.8,5,113.15,5,113v-6l27-.06c0,1,0,1.93,0,2.67v3.34A2.44,2.44,0,0,1,31.57,114.43Z"></path> </g> </g> </svg> 