<?xml version="1.0" encoding="UTF-8"?> <svg xmlns="http://www.w3.org/2000/svg" viewBox="0 0 107.75 72.94"> <defs> <style>.cls-1{fill:#b64141;}</style> </defs> <g id="Слой_2" data-name="Слой 2"> <g id="Слой_1-2" data-name="Слой 1"> <path class="cls-1" d="M29.17,41.58h-5a3.35,3.35,0,0,1-3.35,3.35v5A8.36,8.36,0,0,0,29.17,41.58Z"></path> <path class="cls-1" d="M61.33,41.58h-5A3.35,3.35,0,0,1,53,44.93v5A8.35,8.35,0,0,0,61.33,41.58Z"></path> <path class="cls-1" d="M93.5,41.58h-5a3.36,3.36,0,0,1-3.35,3.35v5A8.36,8.36,0,0,0,93.5,41.58Z"></path> <path class="cls-1" d="M45.48,13.61h-5A3.36,3.36,0,0,1,37.13,17v5A8.36,8.36,0,0,0,45.48,13.61Z"></path> <path class="cls-1" d="M76.58,13.61h-5A3.36,3.36,0,0,1,68.23,17v5A8.36,8.36,0,0,0,76.58,13.61Z"></path> <path class="cls-1" d="M105.25,39.91h-5.5a14.45,14.45,0,0,0-22.49-9.39H62.12a14.4,14.4,0,0,0-16.55.05v-.05H30.49A14.45,14.45,0,0,0,8,39.91H2.5A2.5,2.5,0,0,0,0,42.41v28a2.5,2.5,0,0,0,2.5,2.5H21.21a2.5,2.5,0,0,0,2.5-2.5V65.52H84v4.92a2.5,2.5,0,0,0,2.5,2.5h18.71a2.5,2.5,0,0,0,2.5-2.5v-28A2.5,2.5,0,0,0,105.25,39.91Zm-19.75-7A9.48,9.48,0,1,1,76,42.41,9.49,9.49,0,0,1,85.5,32.93Zm-31.63,0a9.48,9.48,0,1,1-9.47,9.48A9.49,9.49,0,0,1,53.87,32.93Zm-31.62,0a9.48,9.48,0,1,1-9.48,9.48A9.49,9.49,0,0,1,22.25,32.93Zm80.5,35H89V63a2.5,2.5,0,0,0-2.5-2.5H21.21a2.5,2.5,0,0,0-2.5,2.5v4.92H5v-23H8a14.47,14.47,0,1,0,27-9.39h6.16a14.48,14.48,0,1,0,25.47,0h6.16a14.47,14.47,0,1,0,27,9.39h3Z"></path> <path class="cls-1" d="M21.75,17h2.06a14.47,14.47,0,0,0,28.5,0h3.13a14.47,14.47,0,0,0,28.48.17L84,17h3v7.48h5v-10A2.49,2.49,0,0,0,89.5,12H83.94a14.47,14.47,0,0,0-28.5,0H52.31a14.47,14.47,0,0,0-28.5,0H19.25a2.49,2.49,0,0,0-2.5,2.5V24.69h5ZM69.69,5a9.49,9.49,0,0,1,9.48,9.48A10.17,10.17,0,0,1,79,16.23,9.48,9.48,0,1,1,69.69,5ZM38.06,5a9.48,9.48,0,1,1-9.48,9.48A9.49,9.49,0,0,1,38.06,5Z"></path> </g> </g> </svg> 